<?xml version="1.0" encoding="utf-8"?>
<!-- Generator: Adobe Illustrator 24.3.0, SVG Export Plug-In . SVG Version: 6.00 Build 0)  -->
<svg version="1.1" id="layer2" xmlns="http://www.w3.org/2000/svg" xmlns:xlink="http://www.w3.org/1999/xlink" x="0px" y="0px"
	 viewBox="0 0 841.9 595.3" style="enable-background:new 0 0 841.9 595.3;" xml:space="preserve">
<style type="text/css">
	.st0{display:none;fill:#D9A239;stroke:#211613;stroke-width:8.9853;stroke-miterlimit:10;}
	.st1{fill:#19191A;stroke:#211613;stroke-width:1.1232;stroke-miterlimit:10;}
	.st2{fill:none;stroke:#211613;stroke-width:8.9853;stroke-miterlimit:10;}
	.st3{fill:#181819;stroke:#181819;stroke-width:8.9853;stroke-linejoin:round;stroke-miterlimit:10;}
	.st4{fill:none;stroke:#181819;stroke-width:8.9853;stroke-linecap:round;stroke-linejoin:round;stroke-miterlimit:10;}
	.st5{fill:none;stroke:#211613;stroke-width:8.9853;stroke-linejoin:round;stroke-miterlimit:10;}
	.st6{fill:#181819;stroke:#181819;stroke-width:8.9853;stroke-miterlimit:10;}
	.st7{fill:none;stroke:#000000;stroke-width:6;stroke-linecap:round;stroke-miterlimit:10;}
</style>
<path class="st0" d="M621.5,396.6c0,75.2-82.8,134.1-195.8,134.1s-199.2-58.9-199.2-134.1s86.1-146.7,199.2-146.7
	S621.5,321.4,621.5,396.6z"/>
<g id="l_x5F_ear">
	<path class="st1" d="M282.1,120.7C212,91.6,189.6,91.3,175.8,89.1c14.6,2.6,41.2,6.1,97.7,47.3c63.9,46.6,77.3,97.5,75,134.1
		c-0.6,10.3-3.8,15.2-13,16.7c18.7,0.9,21.9-4.4,27.8-18.5C379.5,229.7,363.4,154.6,282.1,120.7z"/>
	<path class="st2" d="M348.5,270.4c2.3-36.6-11.1-87.4-75-134.1c-65.6-47.8-90.9-44.8-103.8-48.6c0,0,7.3,40.9,25.1,73.2
		s68.9,118.2,106.9,123.9C338.5,290.2,347.4,288.5,348.5,270.4z"/>
</g>
<g id="r_x5F_ear">
	<path class="st1" d="M502.9,270.4c-2.3-36.6,11.1-87.4,75-134.1c56.5-41.2,83.2-44.7,97.7-47.3c-13.8,2.2-36.3,2.5-106.3,31.7
		c-81.3,33.9-97.4,108.9-81.2,147.9c5.9,14,9.1,19.3,27.8,18.5C506.7,285.6,503.6,280.7,502.9,270.4z"/>
	<path class="st2" d="M502.9,270.4c-2.3-36.6,11.1-87.4,75-134.1c65.6-47.8,90.9-44.8,103.8-48.6c0,0-7.3,40.9-25.1,73.2
		s-68.9,118.2-106.9,123.9C512.9,290.2,504.1,288.5,502.9,270.4z"/>
</g>
<g id="kutimoto">
	<path class="st3" d="M456.7,435.9c0,0-13.9,24.3-31,24.3c-17.1,0-31-24.3-31-24.3s13.9,8.3,31,8.3
		C442.8,444.2,456.7,435.9,456.7,435.9z"/>
	<path class="st4" d="M425.7,460.2v45.7c0,0,12.2,43.7,34,16.1c21.8-27.5,21.8-70.3,21.8-70.3"/>
	<path class="st4" d="M425.7,460.2v45.7c0,0-12.2,43.7-34,16.1c-21.8-27.5-21.8-70.3-21.8-70.3"/>
</g>
<path id="rinkaku" class="st5" d="M425.7,535.4c-113.1,0-199.2-58.9-199.2-134.1c0-45.9,32.1-87.5,82.9-115.2
	c-2.4-0.3-5-0.7-7.7-1.1c-38-5.6-89.2-94.6-106.9-126.9C177,125.9,169.6,85,169.6,85c1.8,0.5,3.8,0.9,6.1,1.3
	c13.8,2.2,36.3,2.5,106.3,31.7c78.5,32.7,96.3,103.9,82.7,143.8c19.1-4.7,39.5-7.2,60.9-7.2c21.5,0,42,2.6,61,7.3
	c-13.6-39.9,4.1-111.1,82.7-143.9c70.1-29.2,92.5-29.5,106.3-31.7c2.3-0.4,4.4-0.8,6.1-1.3c0,0-7.3,40.9-25.1,73.2
	C639,190.4,587.8,279.4,549.8,285c-3.1,0.5-6,0.9-8.7,1.2c49.7,27.7,80.4,69.2,80.4,115.1C621.5,476.5,538.8,535.4,425.7,535.4"/>
<g id="mayu">
	<path class="st6" d="M404.4,278.6c0,0-0.4-2.4-13.7,10.5c-13.3,13-28.9,44.6-14.5,75.2c14.4,30.6,32,42.4,36.1,42.7
		s-0.6-6.9-1.9-22.4c-1.3-15.5-6.5-49.4-5-66.4c1.5-17.1,5.5-26.5,4.6-33.2C409.2,278.3,404.4,278.6,404.4,278.6z"/>
	<path class="st6" d="M447,278.6c0,0,0.4-2.4,13.7,10.5c13.3,13,28.9,44.6,14.5,75.2s-32,42.4-36.1,42.7s0.6-6.9,1.9-22.4
		c1.3-15.5,6.5-49.4,5-66.4c-1.5-17.1-5.5-26.5-4.6-33.2C442.3,278.3,447,278.6,447,278.6z"/>
</g>
<g id="hair">
	<path class="st7" d="M168.7,82.2c0,0-18.7-6.9-18.6-17.1"/>
	<path class="st7" d="M164.4,84.4c0,0-25.4-0.7-29-11.6"/>
	<path class="st7" d="M679.9,84.6c0,0,21.2-12,24.7-19.5"/>
	<path class="st7" d="M675.7,86.3c0,0,9.6-17.6,6.3-27.9"/>
</g>
</svg>
