<?xml version="1.0" encoding="UTF-8"?>
<svg id="_レイヤー_2" data-name="レイヤー 2" xmlns="http://www.w3.org/2000/svg" viewBox="0 0 227.26 128.94">
  <defs>
    <style>
      .cls-1 {
        fill: none;
        stroke: #000;
        stroke-linecap: round;
        stroke-linejoin: round;
        stroke-width: 8px;
      }
    </style>
  </defs>
  <g id="_レイヤー_3" data-name="レイヤー 3">
    <path class="cls-1" d="M50.26,14.05S-12.74,67.05,25.26,61.05,89.26,15.05,92.26,5.05,45.26,59.05,45.26,77.05,6.26,131.05,4.26,124.05s6-37,71-75-29,22,7,16,34-27,34-27c0,0-34,28-21,28s48-29,48-29c0,0-19,42-25,16,0,0,34,30,76-46,0,0-48,49-47,56s36-28,37-31-42,64,21,7c0,0-40,45,14,10"/>
    <path class="cls-1" d="M222.26,15.05s-1,6,1,5"/>
  </g>
</svg>